<svg xmlns="http://www.w3.org/2000/svg" viewBox="0 0 32 32"><path d="M9.5 5.9c1 0 1.8.1 2.6.3.8.2 1.5.4 2 .8.6.4 1 .9 1.3 1.5.3.6.5 1.4.5 2.4s-.2 1.9-.7 2.5c-.5.7-1.1 1.2-2 1.7 1.2.4 2.2 1 2.8 1.9.6.9.9 2 .9 3.2 0 1-.2 1.9-.6 2.6-.4.7-.9 1.3-1.6 1.8-.7.5-1.4.8-2.3 1-.9.2-1.7.3-2.6.3H0v-20h9.5zm-.6 8.2c.8 0 1.4-.2 1.9-.6.5-.4.8-1 .8-1.8 0-.5-.1-.9-.3-1.2-.2-.3-.4-.5-.7-.7-.3-.2-.6-.3-1-.4H4.4v4.7h4.5zm.3 8.5c.4 0 .8 0 1.2-.1.4-.1.7-.2 1-.4.3-.2.5-.5.7-.8.2-.3.3-.8.3-1.3 0-1-.3-1.8-.9-2.2-.6-.4-1.4-.7-2.3-.7H4.4v5.5h4.8zm13.2-.4c.6.6 1.5.9 2.6.9.8 0 1.5-.2 2.1-.6.6-.4.9-.8 1.1-1.3h3.5c-.6 1.7-1.4 3-2.6 3.8-1.2.8-2.6 1.1-4.2 1.1-1.1 0-2.2-.2-3.1-.6-.9-.4-1.7-.9-2.3-1.6-.6-.7-1.1-1.5-1.5-2.4-.3-.9-.5-2-.5-3.1s.2-2.1.5-3c.4-.9.9-1.8 1.5-2.4.7-.7 1.4-1.2 2.4-1.6.9-.4 1.9-.6 3-.6 1.2 0 2.3.2 3.2.7.9.5 1.7 1.1 2.3 1.9.6.8 1 1.7 1.3 2.8.3 1 .4 2.1.3 3.2H21.5c0 1.3.3 2.2.9 2.8zm4.6-7.7c-.5-.5-1.2-.8-2.2-.8-.6 0-1.2.1-1.6.3-.4.2-.8.5-1 .8-.3.3-.4.7-.5 1-.1.4-.2.7-.2 1H28c-.2-1-.6-1.7-1-2.3zM20.8 7h8.1v2.3h-8.1V7z" fill="#2c2c2c"/></svg>