<svg id="Logo" xmlns="http://www.w3.org/2000/svg" viewBox="0 0 32 32"><style>.st0{fill:#2c2c2c}</style><path class="st0" d="M15.9 3.2c4.2 0 4.6 0 6.3.1 1.5.1 2.3.3 2.9.5.7.4 1.2.7 1.8 1.2.5.5.9 1.1 1.2 1.8.2.5.5 1.4.5 2.9.1 1.6.1 2.1.1 6.3s0 4.6-.1 6.3c-.1 1.5-.3 2.3-.5 2.9-.3.7-.6 1.2-1.2 1.8-.5.5-1.1.9-1.8 1.2-.5.2-1.4.5-2.9.5-1.6.1-2.1.1-6.3.1s-4.6 0-6.3-.1c-1.5-.1-2.3-.3-2.9-.5-.7-.4-1.2-.7-1.8-1.2-.5-.5-.9-1.1-1.2-1.8-.2-.5-.5-1.4-.5-2.9-.1-1.6-.1-2.1-.1-6.3s0-4.6.1-6.3c.1-1.5.3-2.3.5-2.9.4-.7.7-1.2 1.2-1.8.5-.5 1.1-.9 1.8-1.2.5-.2 1.4-.5 2.9-.5 1.7 0 2.1-.1 6.3-.1m0-2.8c-4.2 0-4.8 0-6.4.1-1.7.1-2.8.4-3.8.8s-1.9.9-2.8 1.8c-.8.8-1.3 1.7-1.7 2.7S.6 7.9.5 9.6.4 11.8.4 16s0 4.8.1 6.4c.1 1.7.3 2.8.7 3.8S2.1 28.1 3 29s1.7 1.4 2.8 1.8c1 .4 2.1.6 3.8.7s2.2.1 6.4.1 4.8 0 6.4-.1c1.7-.1 2.8-.3 3.8-.7 1-.4 1.9-.9 2.8-1.8s1.4-1.7 1.8-2.8c.4-1 .6-2.1.7-3.8.1-1.7.1-2.2.1-6.4s0-4.8-.1-6.4c-.1-1.7-.3-2.8-.7-3.8-.4-1-.9-1.9-1.8-2.8s-1.7-1.4-2.8-1.8c-1-.4-2.1-.6-3.8-.7-1.7 0-2.3-.1-6.5-.1z"/><path class="st0" d="M15.9 8c-4.4 0-8 3.6-8 8s3.6 8 8 8 8-3.6 8-8-3.6-8-8-8zm0 13.2c-2.9 0-5.2-2.3-5.2-5.2s2.3-5.2 5.2-5.2 5.2 2.3 5.2 5.2-2.3 5.2-5.2 5.2z"/><circle class="st0" cx="24.2" cy="7.7" r="1.9"/></svg>